# xmcd
#
# Track frame offsets:
#	150
#	15785
#	31337
#	44137
#	58857
#	75670
#	95047
#	116635
#	136385
#	151015
#	170302
#	183500
#
# Disc length: 2626 seconds
#
# Revision: 1
# Processed by: cddbd v1.5.2PL0 Copyright (c) Steve Scherf et al.
# Submitted via: dBpowerAMP V4.0
#
DISCID=950a400c
DTITLE=Donatella Rettore - I Grandi Successi Originali CD1
DYEAR=2001
DGENRE=pop
TTITLE0=Splendido splendente
TTITLE1=Kobra
TTITLE2=Lamette
TTITLE3=Donatella
TTITLE4=Delirio
TTITLE5=brivido
TTITLE6=Divino divina
TTITLE7=Carmela
TTITLE8=Caro preside
TTITLE9=E' morto un artista
TTITLE10=La mia piu' bella canzone d'amore
TTITLE11=La berta
EXTD=
EXTT0=
EXTT1=
EXTT2=
EXTT3=
EXTT4=
EXTT5=
EXTT6=
EXTT7=
EXTT8=
EXTT9=
EXTT10=
EXTT11=
PLAYORDER=
